<?xml version="1.0" encoding="UTF-8" standalone="no"?>
<!-- Created with Inkscape (http://www.inkscape.org/) -->

<svg
   width="128"
   height="128"
   viewBox="0 0 33.866666 33.866666"
   version="1.1"
   id="svg1"
   xml:space="preserve"
   inkscape:version="1.4.3 (0d15f75042, 2025-12-25)"
   sodipodi:docname="icon.svg"
   xmlns:inkscape="http://www.inkscape.org/namespaces/inkscape"
   xmlns:sodipodi="http://sodipodi.sourceforge.net/DTD/sodipodi-0.dtd"
   xmlns="http://www.w3.org/2000/svg"
   xmlns:svg="http://www.w3.org/2000/svg"><sodipodi:namedview
     id="namedview1"
     pagecolor="#ffffff"
     bordercolor="#000000"
     borderopacity="0.25"
     inkscape:showpageshadow="2"
     inkscape:pageopacity="0.0"
     inkscape:pagecheckerboard="0"
     inkscape:deskcolor="#d1d1d1"
     inkscape:document-units="mm"
     showgrid="true"
     inkscape:zoom="2.3985726"
     inkscape:cx="-4.3776036"
     inkscape:cy="79.005321"
     inkscape:window-width="1692"
     inkscape:window-height="1059"
     inkscape:window-x="0"
     inkscape:window-y="0"
     inkscape:window-maximized="1"
     inkscape:current-layer="g2"><inkscape:grid
       id="grid1"
       units="px"
       originx="0"
       originy="0"
       spacingx="0.52916666"
       spacingy="0.52916666"
       empcolor="#0099e5"
       empopacity="0.30196078"
       color="#0099e5"
       opacity="0.14901961"
       empspacing="4"
       enabled="true"
       visible="true" /></sodipodi:namedview><defs
     id="defs1"><clipPath
       clipPathUnits="userSpaceOnUse"
       id="clipPath8812"><circle
         id="circle8814"
         cx="95.669289"
         cy="95.669296"
         r="79.724197"
         style="fill:#00080d;fill-opacity:1;stroke-width:1" /></clipPath><filter
       inkscape:collect="always"
       style="color-interpolation-filters:sRGB"
       id="filter1"
       x="-0.065895608"
       y="-0.065895608"
       width="1.1317912"
       height="1.1317912"><feGaussianBlur
         inkscape:collect="always"
         stdDeviation="0.81362764"
         id="feGaussianBlur1" /></filter><clipPath
       clipPathUnits="userSpaceOnUse"
       id="clipPath8812-7"><circle
         id="circle8814-6"
         cx="95.669289"
         cy="95.669296"
         r="79.724197"
         style="fill:#00080d;fill-opacity:1;stroke-width:1" /></clipPath></defs><g
     inkscape:label="Livello 1"
     inkscape:groupmode="layer"
     id="layer1"><rect
       style="fill:#000000;fill-opacity:1;stroke-width:0.264583;stroke-linecap:round;paint-order:markers fill stroke;filter:url(#filter1);opacity:0.5"
       id="rect1-4"
       width="29.633331"
       height="29.633331"
       x="2.116667"
       y="2.116667"
       ry="6.3499999" /><g
       id="g2"
       transform="translate(0,-0.52916663)"><rect
         style="fill:#0082c9;fill-opacity:1;stroke-width:0.264583;stroke-linecap:round;paint-order:markers fill stroke"
         id="rect1"
         width="29.633331"
         height="29.633331"
         x="2.1166666"
         y="2.1166666"
         ry="6.3499999" /><ellipse
         style="fill:#ffffff;fill-opacity:0.4;stroke-width:0.264583;stroke-linecap:round;paint-order:markers fill stroke"
         id="path1"
         cx="9.5249996"
         cy="9.5249996"
         rx="2.1166668"
         ry="2.116667" /><ellipse
         style="fill:#ffffff;fill-opacity:0.4;stroke-width:0.264583;stroke-linecap:round;paint-order:markers fill stroke"
         id="path1-9"
         cx="24.341665"
         cy="9.5249996"
         rx="2.1166668"
         ry="2.116667" /><ellipse
         style="fill:#ffffff;fill-opacity:0.4;stroke-width:0.264583;stroke-linecap:round;paint-order:markers fill stroke"
         id="path1-1"
         cx="16.933332"
         cy="9.5249996"
         rx="2.1166668"
         ry="2.116667" /><ellipse
         style="fill:#ffffff;stroke-width:0.264583;stroke-linecap:round;paint-order:markers fill stroke"
         id="path1-5"
         cx="9.5250006"
         cy="16.933332"
         rx="2.1166668"
         ry="2.116667" /><ellipse
         style="fill:#ffffff;stroke-width:0.264583;stroke-linecap:round;paint-order:markers fill stroke"
         id="path1-9-0"
         cx="24.341665"
         cy="16.933332"
         rx="2.1166668"
         ry="2.116667" /><ellipse
         style="fill:#ffffff;stroke-width:0.264583;stroke-linecap:round;paint-order:markers fill stroke"
         id="path1-1-3"
         cx="16.933332"
         cy="16.933332"
         rx="2.1166668"
         ry="2.116667" /><ellipse
         style="fill:#ffffff;fill-opacity:0.4;stroke-width:0.264583;stroke-linecap:round;paint-order:markers fill stroke"
         id="path1-5-3"
         cx="9.5250006"
         cy="24.341665"
         rx="2.1166668"
         ry="2.116667" /><ellipse
         style="fill:#ffffff;fill-opacity:0.4;stroke-width:0.264583;stroke-linecap:round;paint-order:markers fill stroke"
         id="path1-9-0-2"
         cx="24.341665"
         cy="24.341665"
         rx="2.1166668"
         ry="2.116667" /><ellipse
         style="fill:#ffffff;stroke-width:0.264583;stroke-linecap:round;paint-order:markers fill stroke"
         id="path1-1-3-0"
         cx="16.933332"
         cy="24.341665"
         rx="2.1166668"
         ry="2.116667" /><g
         id="g1"
         transform="matrix(0.18467085,0,0,0.18467085,4.7528091,10.423911)"
         style="fill:#ffffff;fill-opacity:0.4;stroke-width:1.52825"><path
           inkscape:connector-curvature="0"
           id="path1052"
           d="m 66.407896,9.375 c -11.805271,0 -21.811217,8.003196 -24.912392,18.846621 -2.695245,-5.751517 -8.535934,-9.780938 -15.263394,-9.780938 -9.25185,0 -16.85711,7.605263 -16.85711,16.857108 0,9.251833 7.60526,16.860567 16.85711,16.860567 6.72746,0 12.568149,-4.031885 15.263395,-9.784412 3.101175,10.84425 13.10712,18.850106 24.912391,18.850106 11.717964,0 21.67289,-7.885111 24.853382,-18.607048 2.745036,5.621934 8.513436,9.541354 15.145342,9.541354 9.25185,0 16.86057,-7.608734 16.86057,-16.860567 0,-9.251845 -7.60872,-16.857108 -16.86057,-16.857108 -6.631906,0 -12.400306,3.916965 -15.145342,9.537891 C 88.080786,17.257475 78.12586,9.375 66.407896,9.375 Z m 0,9.895518 c 8.911648,0 16.030748,7.115653 16.030748,16.027273 0,8.911605 -7.1191,16.030737 -16.030748,16.030737 -8.911593,0 -16.027247,-7.119132 -16.027247,-16.030737 0,-8.91162 7.115653,-16.027271 16.027247,-16.027273 z M 26.23211,28.336202 c 3.90438,0 6.96505,3.057188 6.96505,6.961589 0,3.904386 -3.06067,6.965049 -6.96505,6.965049 -3.90439,0 -6.96161,-3.060663 -6.96161,-6.965049 0,-3.904401 3.05722,-6.961589 6.96161,-6.961589 z m 80.17451,0 c 3.90442,0 6.96506,3.057188 6.96506,6.961589 0,3.904386 -3.06066,6.965049 -6.96506,6.965049 -3.90436,0 -6.961576,-3.060663 -6.961576,-6.965049 0,-3.904401 3.057226,-6.961589 6.961576,-6.961589 z"
           style="color:#000000;font-style:normal;font-variant:normal;font-weight:normal;font-stretch:normal;font-size:medium;line-height:normal;font-family:sans-serif;text-indent:0;text-align:start;text-decoration:none;text-decoration-line:none;text-decoration-style:solid;text-decoration-color:#000000;letter-spacing:normal;word-spacing:normal;text-transform:none;writing-mode:lr-tb;direction:ltr;baseline-shift:baseline;text-anchor:start;white-space:normal;clip-rule:nonzero;display:inline;overflow:visible;visibility:visible;opacity:1;isolation:auto;mix-blend-mode:normal;color-interpolation:sRGB;color-interpolation-filters:linearRGB;solid-color:#000000;solid-opacity:1;fill:#ffffff;fill-opacity:0.4;fill-rule:nonzero;stroke:none;stroke-width:8.50606;stroke-linecap:butt;stroke-linejoin:miter;stroke-miterlimit:10;stroke-dasharray:none;stroke-dashoffset:0;stroke-opacity:1;color-rendering:auto;image-rendering:auto;shape-rendering:auto;text-rendering:auto;enable-background:accumulate"
           inkscape:export-filename="Nextcloud Hub logo variants.png"
           inkscape:export-xdpi="300"
           inkscape:export-ydpi="300" /></g></g></g></svg>
